<svg width="960" height="720" viewBox="0 0 960 720" fill="none" xmlns="http://www.w3.org/2000/svg">
  <defs>
    <linearGradient id="heroBg" x1="160" y1="40" x2="840" y2="680" gradientUnits="userSpaceOnUse">
      <stop stop-color="#0F3D36"/>
      <stop offset="0.54" stop-color="#1F6F5F"/>
      <stop offset="1" stop-color="#6FCF97"/>
    </linearGradient>
    <linearGradient id="cardFill" x1="220" y1="180" x2="740" y2="560" gradientUnits="userSpaceOnUse">
      <stop stop-color="#FFFFFF" stop-opacity="0.96"/>
      <stop offset="1" stop-color="#EAF7F2" stop-opacity="0.96"/>
    </linearGradient>
    <linearGradient id="chartFill" x1="0" y1="0" x2="0" y2="1" gradientUnits="userSpaceOnUse">
      <stop stop-color="#2FA084"/>
      <stop offset="1" stop-color="#6FCF97"/>
    </linearGradient>
    <filter id="shadow" x="0" y="0" width="960" height="720" filterUnits="userSpaceOnUse">
      <feDropShadow dx="0" dy="24" stdDeviation="24" flood-color="#0A2D28" flood-opacity="0.24"/>
    </filter>
  </defs>

  <rect width="960" height="720" rx="44" fill="url(#heroBg)"/>
  <circle cx="770" cy="116" r="124" fill="#FFFFFF" fill-opacity="0.08"/>
  <circle cx="168" cy="594" r="172" fill="#FFFFFF" fill-opacity="0.08"/>
  <path d="M88 166C164 108 256 90 352 112C409 125 453 155 490 204C538 268 621 300 700 288C793 273 854 225 904 166" stroke="#FFFFFF" stroke-opacity="0.12" stroke-width="18" stroke-linecap="round"/>

  <g filter="url(#shadow)">
    <rect x="160" y="118" width="640" height="484" rx="36" fill="url(#cardFill)"/>
  </g>

  <rect x="202" y="160" width="188" height="144" rx="24" fill="#FFFFFF"/>
  <rect x="206" y="164" width="180" height="136" rx="22" stroke="#1F6F5F" stroke-opacity="0.1"/>
  <rect x="226" y="190" width="148" height="14" rx="7" fill="#D9EDE5"/>
  <rect x="226" y="218" width="88" height="12" rx="6" fill="#E7F5EE"/>
  <rect x="226" y="248" width="52" height="58" rx="10" fill="#D2F1DF"/>
  <rect x="290" y="238" width="52" height="68" rx="10" fill="#74D6A0"/>
  <rect x="354" y="224" width="32" height="82" rx="10" fill="#2FA084"/>

  <rect x="424" y="160" width="334" height="200" rx="24" fill="#FFFFFF"/>
  <rect x="450" y="186" width="140" height="12" rx="6" fill="#D9EDE5"/>
  <rect x="450" y="214" width="248" height="16" rx="8" fill="#EAF7F2"/>
  <rect x="450" y="244" width="194" height="16" rx="8" fill="#EAF7F2"/>
  <rect x="450" y="274" width="226" height="16" rx="8" fill="#EAF7F2"/>
  <rect x="450" y="306" width="110" height="24" rx="12" fill="#D2F1DF"/>

  <rect x="424" y="384" width="334" height="176" rx="24" fill="#FFFFFF"/>
  <rect x="454" y="416" width="126" height="12" rx="6" fill="#D9EDE5"/>
  <rect x="454" y="446" width="40" height="86" rx="12" fill="#D2F1DF"/>
  <rect x="514" y="426" width="40" height="106" rx="12" fill="#74D6A0"/>
  <rect x="574" y="438" width="40" height="94" rx="12" fill="#2FA084"/>
  <rect x="634" y="410" width="40" height="122" rx="12" fill="url(#chartFill)"/>

  <g>
    <circle cx="230" cy="470" r="56" fill="#E7F5EE"/>
    <path d="M230 434C218 450 208 462 208 476C208 491 218 504 230 504C242 504 252 491 252 476C252 462 242 450 230 434Z" fill="#2FA084"/>
    <path d="M230 446C224 456 220 464 220 472C220 481 225 489 230 489C236 489 240 481 240 472C240 464 236 456 230 446Z" fill="#6FCF97"/>
  </g>

  <g opacity="0.95">
    <rect x="180" y="612" width="600" height="24" rx="12" fill="#0B2E29" fill-opacity="0.18"/>
    <rect x="196" y="620" width="186" height="8" rx="4" fill="#FFFFFF" fill-opacity="0.8"/>
    <rect x="410" y="620" width="146" height="8" rx="4" fill="#FFFFFF" fill-opacity="0.6"/>
    <rect x="580" y="620" width="150" height="8" rx="4" fill="#FFFFFF" fill-opacity="0.45"/>
  </g>
</svg>